<svg width="89" height="30" viewBox="0 0 89 30" fill="none" xmlns="http://www.w3.org/2000/svg">
<path d="M44.0398 10.229H41.444V13.4086H29.2539V15.5838H55.9266V13.4086H44.0398V10.229Z" fill="#555755"/>
<path d="M32.4206 19.9799H49.7861V22.1974H32.4206V23.7497H32.4141V28.1881H32.4206V28.7588H52.3819V26.5869H35.0132V24.3726H52.3819V24.3237V22.1974V19.9799V19.8853V17.8047H32.4206V19.9799Z" fill="#555755"/>
<path d="M23.1271 2.32422H20.5312V21.9953H23.1271V12.388H27.5166V10.2129H23.1271V2.32422Z" fill="#555755"/>
<path d="M6.79572 22.0049H4.20312V26.5868V26.8607V28.7619H23.1242V26.5868H6.79572V22.0049Z" fill="#555755"/>
<path d="M18.4111 14.4164C18.4111 10.6465 14.5108 8.73877 9.70394 8.73877C4.89704 8.73877 1 10.6465 1 14.4164C1 18.1862 4.89704 20.094 9.7072 20.094C14.5174 20.094 18.4144 18.1928 18.4144 14.4164M3.77848 14.4164C3.77848 11.8825 6.42977 10.9172 9.71046 10.9172C12.9911 10.9172 15.6457 11.8825 15.6457 14.4164C15.6457 16.9503 12.9879 17.9156 9.71046 17.9156C6.43303 17.9156 3.77848 16.947 3.77848 14.4164Z" fill="#555755"/>
<path d="M18.0328 5.48438H1.375V7.65628H18.0328V5.48438Z" fill="#555755"/>
<path d="M13.5674 2.22656H5.8418V4.39847H13.5674V2.22656Z" fill="#555755"/>
<path d="M42.7354 5.4223C46.0781 10.3727 54.3907 11.2695 54.3907 11.2695L54.7983 9.10085C44.4377 7.80292 44.079 2.11878 44.079 1.33285C44.0823 1.3035 44.0888 1.27415 44.0921 1.23828H41.3723C41.3755 1.26763 41.3821 1.30024 41.3853 1.33285C41.3853 2.11226 41.0299 7.80292 30.666 9.10085L31.0769 11.2695C31.0769 11.2695 39.3895 10.3727 42.7322 5.4223" fill="#555755"/>
<path d="M83.8088 19.533H64.6595C63.8801 19.533 63.2441 20.1656 63.2441 20.9483V27.5879C63.2441 28.3673 63.8768 29.0033 64.6595 29.0033H83.8088C84.5882 29.0033 85.2241 28.3706 85.2241 27.5879V20.9483C85.2241 20.1689 84.5914 19.533 83.8088 19.533ZM81.9858 22.5886V25.9117C81.9858 26.0911 81.8391 26.2378 81.6597 26.2378H66.7238C66.5444 26.2378 66.3976 26.0911 66.3976 25.9117V22.5886C66.3976 22.4093 66.5444 22.2625 66.7238 22.2625H81.6597C81.8391 22.2625 81.9858 22.4093 81.9858 22.5886Z" fill="#00AB8D"/>
<path d="M86.7242 15.6685H75.8223V14.501C75.8223 13.6401 75.1211 12.939 74.2602 12.939C73.3993 12.939 72.6981 13.6401 72.6981 14.501V15.6685H61.7277C60.9842 15.6685 60.3809 16.2718 60.3809 17.0154C60.3809 17.7589 60.9874 18.3622 61.7277 18.3622H86.7275C87.471 18.3622 88.0743 17.7556 88.0743 17.0154C88.0743 16.2751 87.471 15.6685 86.7275 15.6685H86.7242Z" fill="#00AB8D"/>
<path d="M82.727 1C81.8465 1 81.1323 1.71419 81.1323 2.59469V9.80503H67.3606V2.59469C67.3606 1.71419 66.6432 1 65.7627 1C64.8822 1 64.168 1.71419 64.168 2.59469V10.9497C64.168 11.8302 64.8822 12.5444 65.7627 12.5444L82.727 12.5542C83.6075 12.5542 84.325 11.84 84.325 10.9595V2.59469C84.325 1.71419 83.6108 1 82.7303 1H82.727Z" fill="#00AB8D"/>
<path d="M79.067 4.98193H69.3195C68.576 4.98193 67.9727 5.5885 67.9727 6.32878C67.9727 7.06905 68.5792 7.67562 69.3195 7.67562H79.067C79.8105 7.67562 80.4138 7.07231 80.4138 6.32878C80.4138 5.58524 79.8105 4.98193 79.067 4.98193Z" fill="#F08307"/>
</svg>
